<svg width="72" height="83" viewBox="0 0 72 83" fill="none" xmlns="http://www.w3.org/2000/svg">
<path d="M37.273 72.5L42.273 68" stroke="#1F0B1D" stroke-width="3"/>
<path d="M35.273 52.3752L41.1868 49.1694" stroke="#1F0B1D" stroke-width="3"/>
<path d="M33.5594 46.9268L28.273 42.7669" stroke="#1F0B1D" stroke-width="3"/>
<path d="M36.4241 66.5629L30.273 63.84" stroke="#1F0B1D" stroke-width="3"/>
<path d="M35.8102 56.5278C39.9276 69.4984 37.6855 76.1434 37.0653 82.5H33.0653C36.5653 67.5 34.5653 64 33.0653 56C31.5652 44.5 32.5653 35.8333 33.0653 32H35.273C33.8665 39.8244 34.4377 45.2746 34.6829 50.306C34.7859 52.4176 35.1705 54.5128 35.8102 56.5278Z" fill="#8A8A8A"/>
<path d="M36.8102 56.5278C40.9276 69.4984 38.6855 76.1434 38.0653 82.5H34.5654C38.0653 67.5 35.5653 64 34.0653 56C32.5652 44.5 33.5653 35.8333 34.0653 32H36.273C34.8665 39.8244 35.4377 45.2746 35.6829 50.306C35.7859 52.4176 36.1705 54.5128 36.8102 56.5278Z" fill="#8A8A8A"/>
<path d="M41.286 66.5164C40.7145 71.9279 43.8317 81.8395 60.8726 78.194C62.9153 72.059 48.8466 59.2301 41.286 66.5164Z" fill="#8A8A8A"/>
<path d="M60.6768 78.3828C60.6768 78.3828 45.666 67.8505 41.0902 66.7052C40.6256 72.7079 44.8022 76.3214 44.8022 76.3214C50.0327 80.3077 60.6768 78.3828 60.6768 78.3828Z" fill="#8A8A8A"/>
<path d="M0.076014 43.7895C2.87634 50.0918 17.6297 58.1887 29.6254 41.7928C22.9495 29.5366 4.69772 32.3654 0.076014 43.7895Z" fill="#8A8A8A"/>
<path d="M29.6254 41.7928C29.6254 41.7928 10.1682 40.8627 6.50287e-06 44.0274C2.5965 50.9659 12.9107 51.8593 12.9107 51.8593C24.7987 50.8476 29.6254 41.7928 29.6254 41.7928Z" fill="#8A8A8A"/>
<path d="M39.5929 48.0696C40.9372 55.4627 54.4761 67.83 71.3938 53.5545C67.4772 38.8606 47.4244 37.162 39.5929 48.0696Z" fill="#8A8A8A"/>
<path d="M71.3938 53.5545C71.3938 53.5545 51.0313 47.566 39.4512 48.3019C40.4161 56.3162 51.1072 59.9147 51.1072 59.9147C63.9546 61.9007 71.3938 53.5545 71.3938 53.5545Z" fill="#8A8A8A"/>
<path d="M56.79 41.0124C64.3456 42.0706 68.5727 47.6207 68.5727 47.6207C66.5826 49.9206 63.1733 44.9099 56.0802 44.094C48.9871 43.2781 46.7903 47.7953 42.7835 44.7629C42.7835 44.7629 49.2345 39.9543 56.79 41.0124Z" fill="#8A8A8A"/>
<path d="M32.4244 30.982C35.2168 37.9582 50.9511 47.3754 64.6803 30.0114C57.9105 16.3945 37.922 18.7311 32.4244 30.982Z" fill="#8A8A8A"/>
<path d="M64.6803 30.0113C64.6803 30.0113 43.5323 28.2061 32.3319 31.2379C34.8764 38.8985 46.0706 40.2915 46.0706 40.2915C59.0559 39.674 64.6803 30.0113 64.6803 30.0113Z" fill="#8A8A8A"/>
<path d="M47.8675 20.6354C55.4823 20.1647 60.7318 24.7598 60.7318 24.7598C57.5721 26.4617 55.1662 27.2668 48.19 25.9131C41.2138 24.5593 40.1643 26.8284 34.891 27.1052C34.891 27.1052 40.2528 21.1061 47.8675 20.6354Z" fill="#8A8A8A"/>
<path d="M6.20903 67.7995C9.29187 72.7564 22.6049 77.8234 30.7489 62.6785C23.7224 53.1823 8.751 57.6829 6.20903 67.7995Z" fill="#8A8A8A"/>
<path d="M30.7488 62.6785C30.7488 62.6785 14.3283 64.1685 6.17293 68.0078C9.15911 73.5218 17.9103 73.0677 17.9103 73.0677C27.7586 70.8327 30.7488 62.6785 30.7488 62.6785Z" fill="#8A8A8A"/>
<path d="M16.6167 57.7895C24.9828 55.0665 30.763 62.6717 30.763 62.6717C28.5772 64.4024 18.4143 62.5566 18.4143 62.5566L10.8598 60.7047C10.8598 60.7047 13.4961 58.8051 16.6167 57.7895Z" fill="#8A8A8A"/>
</svg>
