<svg width="70" height="83" viewBox="0 0 70 83" fill="none" xmlns="http://www.w3.org/2000/svg">
<g clip-path="url(#clip0_59_436)">
<path d="M32.344 81.4563C39.6315 83.289 56.4899 76.0748 50.4865 54.7685C35.488 52.2595 25.6504 69.8157 32.344 81.4563Z" fill="#8A8A8A"/>
<path d="M50.4865 54.7685C50.4865 54.7685 36.6148 70.833 32.497 81.6813C40.1932 84.1163 47.89 75.8696 47.89 75.8696C55.0101 64.9928 50.4865 54.7685 50.4865 54.7685Z" fill="#8A8A8A"/>
<path d="M33.0286 62.88C37.116 56.438 43.9172 54.8839 43.9172 54.8839C43.4411 58.4411 42.6812 60.8616 37.4913 65.716C32.3013 70.5703 33.5227 72.7517 30.6524 77.184C30.6524 77.184 28.9412 69.3221 33.0286 62.88Z" fill="#8A8A8A"/>
</g>
<defs>
<clipPath id="clip0_59_436">
<rect width="69.075" height="82.5" fill="#8A8A8A"/>
</clipPath>
</defs>
</svg>
