<svg width="70" height="83" viewBox="0 0 70 83" fill="none" xmlns="http://www.w3.org/2000/svg">
<g clip-path="url(#clip0_59_506)">
<path d="M35.5372 83.5278C39.6545 96.4984 37.4124 103.143 36.7923 109.5H32.7923C36.2923 94.5 34.2923 91 32.7923 83C31.2921 71.5 32.2923 62.8333 32.7923 59H35C33.5935 66.8244 34.1647 72.2746 34.4099 77.306C34.5128 79.4176 34.8975 81.5128 35.5372 83.5278Z" fill="#8A8A8A"/>
<path d="M36.5372 83.5278C40.6545 96.4984 38.4124 103.143 37.7923 109.5H34.2923C37.7923 94.5 35.2923 91 33.7923 83C32.2921 71.5 33.2923 62.8333 33.7923 59H36C34.5935 66.8244 35.1647 72.2746 35.4099 77.306C35.5128 79.4176 35.8975 81.5128 36.5372 83.5278Z" fill="#8A8A8A"/>
<path d="M33.7268 57.2041C34.3001 64.4838 46.2691 78.3318 64.1913 67.1627C61.8378 52.5101 42.4521 47.9161 33.7268 57.2041Z" fill="#8A8A8A"/>
<path d="M64.1913 67.1628C64.1913 67.1628 44.9316 58.4142 33.5654 57.4056C33.7068 65.2241 43.7736 70.2525 43.7736 70.2525C56.104 74.0555 64.1913 67.1628 64.1913 67.1628Z" fill="#8A8A8A"/>
<path d="M51.2012 52.9897C58.4637 55.1211 62.0321 61.0622 62.0321 61.0622C59.862 62.9705 57.0372 57.667 50.2015 55.836C43.3658 54.0051 40.773 58.0063 37.168 54.5092C37.168 54.5092 43.9387 50.8583 51.2012 52.9897Z" fill="#8A8A8A"/>
<path d="M7.60796 69.1593C10.5504 73.5953 24.8104 75.5681 35.2677 57.5868C28.3899 49.3709 11.3842 57.8786 7.60796 69.1593Z" fill="#8A8A8A"/>
<path d="M35.2677 57.5868C35.2677 57.5868 16.9436 63.2935 7.54829 69.3874C10.3308 74.4337 20.0642 71.7499 20.0642 71.7499C31.1816 66.9165 35.2677 57.5868 35.2677 57.5868Z" fill="#8A8A8A"/>
<path d="M20.0837 56.0076C26.5947 53.0896 31.4651 54.8671 31.4651 54.8671C28.8803 57.2382 26.8741 58.6658 20.7706 59.9643C14.6671 61.2628 13.9407 63.3627 9.428 65.3456C9.428 65.3456 13.5727 58.9256 20.0837 56.0076Z" fill="#8A8A8A"/>
</g>
<defs>
<clipPath id="clip0_59_506">
<rect width="69.075" height="82.5" fill="#8A8A8A"/>
</clipPath>
</defs>
</svg>
