<svg width="70" height="83" viewBox="0 0 70 83" fill="none" xmlns="http://www.w3.org/2000/svg">
<g clip-path="url(#clip0_59_409)">
<path d="M35.5372 83.5278C39.6545 96.4984 37.4124 103.143 36.7923 109.5H32.7923C36.2923 94.5 34.2923 91 32.7923 83C31.2921 71.5 32.2923 62.8333 32.7923 59H35C33.5935 66.8244 34.1647 72.2746 34.4099 77.306C34.5128 79.4176 34.8975 81.5128 35.5372 83.5278Z" fill="#8A8A8A"/>
<path d="M36.5372 83.5278C40.6545 96.4984 38.4124 103.143 37.7923 109.5H34.2923C37.7923 94.5 35.2923 91 33.7923 83C32.2921 71.5 33.2923 62.8333 33.7923 59H36C34.5935 66.8244 35.1647 72.2746 35.4099 77.306C35.5128 79.4176 35.8975 81.5128 36.5372 83.5278Z" fill="#8A8A8A"/>
<path d="M33 59.6399C38 64.9618 56 68.2824 63 48.3588C52 38.3969 34 46.9356 33 59.6399Z" fill="#8A8A8A"/>
<path d="M63 48.3588C63 48.3588 42.5001 53.5769 33.0001 59.898C38 65.9105 49 63.5387 49 63.5387C61 58.795 63 48.3588 63 48.3588Z" fill="#8A8A8A"/>
<path d="M44 45.4231C51 42.5444 57.5 44.9487 57.5 44.9487C57 47.795 51.479 45.4231 45 48.2693C38.521 51.1155 39 55.8593 34 55.3849C34 55.3849 37 48.3018 44 45.4231Z" fill="#8A8A8A"/>
<path d="M4.58465 53.8599C4.63716 59.1829 15.5234 68.6024 34.0857 59.2147C32.7906 48.5786 13.8945 46.4546 4.58465 53.8599Z" fill="#8A8A8A"/>
<path d="M34.0856 59.2147C34.0856 59.2147 15.6089 54.0235 4.41036 54.0188C3.99636 59.7665 13.6216 62.8154 13.6216 62.8154C25.5782 64.8151 34.0856 59.2147 34.0856 59.2147Z" fill="#8A8A8A"/>
<path d="M22.2099 49.6222C29.2599 50.7201 32.3771 54.863 32.3771 54.863C28.918 55.4443 26.458 55.5493 20.6316 53.3149C14.8052 51.0806 13.0526 52.4463 8.1878 51.6522C8.1878 51.6522 15.1599 48.5244 22.2099 49.6222Z" fill="#8A8A8A"/>
</g>
<defs>
<clipPath id="clip0_59_409">
<rect width="69.075" height="82.5" fill="#8A8A8A"/>
</clipPath>
</defs>
</svg>
