<svg width="70" height="83" viewBox="0 0 70 83" fill="none" xmlns="http://www.w3.org/2000/svg">
<path d="M36.075 72.5L41.075 68" stroke="#1F0B1D" stroke-width="3"/>
<path d="M34.075 52.3752L39.9888 49.1694" stroke="#1F0B1D" stroke-width="3"/>
<path d="M32.3613 46.9268L27.075 42.7669" stroke="#1F0B1D" stroke-width="3"/>
<path d="M35.2261 66.5629L29.075 63.84" stroke="#1F0B1D" stroke-width="3"/>
<path d="M34.6122 56.5278C38.7296 69.4984 36.4874 76.1434 35.8673 82.5H31.8673C35.3673 67.5 33.3673 64 31.8673 56C30.3671 44.5 31.3673 35.8333 31.8673 32H34.075C32.6685 39.8244 33.2397 45.2746 33.4849 50.306C33.5878 52.4176 33.9725 54.5128 34.6122 56.5278Z" fill="#8A8A8A"/>
<path d="M35.6122 56.5278C39.7296 69.4984 37.4874 76.1434 36.8673 82.5H33.3673C36.8673 67.5 34.3673 64 32.8673 56C31.3671 44.5 32.3673 35.8333 32.8673 32H35.075C33.6685 39.8244 34.2397 45.2746 34.4849 50.306C34.5878 52.4176 34.9725 54.5128 35.6122 56.5278Z" fill="#8A8A8A"/>
<path d="M40.075 67.3906C43.575 71.5573 52.875 76.1906 62.075 61.3906C59.075 55.6626 40.075 56.8905 40.075 67.3906Z" fill="#8A8A8A"/>
<path d="M62.0751 61.6627C62.0751 61.6627 44.075 65.1626 40.0751 67.6627C44.075 72.1626 49.5751 71.6627 49.5751 71.6627C56.075 70.6626 62.0751 61.6627 62.0751 61.6627Z" fill="#8A8A8A"/>
<path d="M3.1901 29.8965C2.29787 36.735 10.6744 51.3314 29.4545 43.5834C30.1396 29.6439 13.0859 22.5518 3.1901 29.8965Z" fill="#8A8A8A"/>
<path d="M29.4546 43.5835C29.4546 43.5835 13.3297 32.6548 3.00134 30.06C1.60373 37.3353 9.94293 43.4704 9.94293 43.4704C20.6179 48.7989 29.4546 43.5835 29.4546 43.5835Z" fill="#8A8A8A"/>
<path d="M39.075 48.4848C44.075 54.0942 62.075 57.5942 69.075 36.5942C58.075 26.0942 40.075 35.0942 39.075 48.4848Z" fill="#8A8A8A"/>
<path d="M69.075 36.5942C69.075 36.5942 48.5751 42.0942 39.0751 48.7569C44.075 55.0942 55.075 52.5942 55.075 52.5942C67.075 47.5942 69.075 36.5942 69.075 36.5942Z" fill="#8A8A8A"/>
<path d="M50.075 33.5C57.075 30.4658 63.575 33 63.575 33C63.075 36 57.5541 33.5 51.075 36.5C44.596 39.5 45.075 44.5 40.075 44C40.075 44 43.075 36.5342 50.075 33.5Z" fill="#8A8A8A"/>
<path d="M32.0616 32.284C39.5278 33.1337 55.28 23.7466 46.5029 3.42515C31.3042 2.92819 23.8828 21.6344 32.0616 32.284Z" fill="#8A8A8A"/>
<path d="M46.503 3.42515C46.503 3.42515 34.8852 21.1881 32.243 32.4868C40.1943 33.8792 46.729 24.6842 46.729 24.6842C52.343 12.959 46.503 3.42515 46.503 3.42515Z" fill="#8A8A8A"/>
<path d="M30.2756 13.7812C33.4721 6.85382 40.007 4.41111 40.007 4.41111C40.007 8 39.575 10.5 35.075 16C30.575 21.5 32.075 23.5 29.8181 28.274C29.8181 28.274 27.079 20.7086 30.2756 13.7812Z" fill="#8A8A8A"/>
<path d="M7.41998 55.6559C7.4865 61.4929 16.2441 72.7275 31.0596 63.9986C29.974 52.2355 14.8383 48.3227 7.41998 55.6559Z" fill="#8A8A8A"/>
<path d="M31.0595 63.9986C31.0595 63.9986 16.2454 56.7601 7.28113 55.8153C6.97615 62.0786 14.695 66.227 14.695 66.227C24.2752 69.4213 31.0595 63.9986 31.0595 63.9986Z" fill="#8A8A8A"/>
<path d="M21.5092 52.4916C30.0749 54.5002 31.0751 64.0002 31.0751 64.0002C28.3088 64.347 20.575 57.5 20.575 57.5L15.075 52C15.075 52 18.3141 51.7423 21.5092 52.4916Z" fill="#8A8A8A"/>
</svg>
