<svg width="70" height="83" viewBox="0 0 70 83" fill="none" xmlns="http://www.w3.org/2000/svg">
<g clip-path="url(#clip0_59_518)">
<path d="M28.2887 74.0333C32.0461 80.5407 48.9612 87.6211 60.0776 68.4788C51.4375 55.9648 31.9855 61.1243 28.2887 74.0333Z" fill="#8A8A8A"/>
<path d="M60.0775 68.4788C60.0775 68.4788 38.8881 69.7038 28.2335 74.2997C31.8432 81.5199 43.1216 81.3045 43.1216 81.3045C55.8867 78.844 60.0775 68.4788 60.0775 68.4788Z" fill="#8A8A8A"/>
<path d="M42.1009 61.5928C49.5711 60.0425 55.4214 63.8431 55.4214 63.8431C52.5363 65.9776 50.2696 67.1172 43.1717 66.7708C36.0738 66.4244 35.3582 68.8197 30.178 69.8447C30.178 69.8447 34.6308 63.1432 42.1009 61.5928Z" fill="#8A8A8A"/>
</g>
<defs>
<clipPath id="clip0_59_518">
<rect width="69.075" height="82.5" fill="#8A8A8A"/>
</clipPath>
</defs>
</svg>
