<svg width="70" height="83" viewBox="0 0 70 83" fill="none" xmlns="http://www.w3.org/2000/svg">
<g clip-path="url(#clip0_59_488)">
<path d="M36.075 72.5L41.075 68" stroke="#1F0B1D" stroke-width="3"/>
<path d="M33.2261 63.5629L27.075 60.84" stroke="#1F0B1D" stroke-width="3"/>
<path d="M35.5372 65.5278C39.6545 78.4984 37.4124 85.1434 36.7923 91.5H32.7923C36.2923 76.5 34.2923 73 32.7923 65C31.2921 53.5 32.2923 44.8333 32.7923 41H35C33.5935 48.8244 34.1647 54.2746 34.4099 59.306C34.5128 61.4176 34.8975 63.5128 35.5372 65.5278Z" fill="#8A8A8A"/>
<path d="M36.5372 65.5278C40.6545 78.4984 38.4124 85.1434 37.7923 91.5H34.2923C37.7923 76.5 35.2923 73 33.7923 65C32.2921 53.5 33.2923 44.8333 33.7923 41H36C34.5935 48.8244 35.1647 54.2746 35.4099 59.306C35.5128 61.4176 35.8975 63.5128 36.5372 65.5278Z" fill="#8A8A8A"/>
<path d="M40.1238 67.0046C40.566 72.7196 49.8728 83.162 63.8257 73.6519C62.0021 62.1961 46.9187 59.34 40.1238 67.0046Z" fill="#8A8A8A"/>
<path d="M63.8257 73.6519C63.8257 73.6519 48.8426 67.5164 39.9981 67.1699C40.1039 73.3265 47.9351 76.8926 47.9351 76.8926C57.5285 79.4036 63.8257 73.6519 63.8257 73.6519Z" fill="#8A8A8A"/>
<path d="M53.7245 62.9937C59.375 64.3871 62.1487 68.9289 62.1487 68.9289C60.4589 70.5185 58.2635 66.4499 52.945 65.2765C47.6265 64.1031 45.6066 67.359 42.8032 64.7449C42.8032 64.7449 48.074 61.6003 53.7245 62.9937Z" fill="#8A8A8A"/>
<path d="M32.3014 42.0699C36.0712 48.5702 52.9996 55.6187 64.0798 36.4554C55.4161 23.9578 35.9739 29.154 32.3014 42.0699Z" fill="#8A8A8A"/>
<path d="M64.0798 36.4555C64.0798 36.4555 42.8927 37.7204 32.2469 42.3365C35.8701 49.5498 47.1481 49.3131 47.1481 49.3131C59.9085 46.8285 64.0798 36.4555 64.0798 36.4555Z" fill="#8A8A8A"/>
<path d="M46.0902 29.6033C53.5574 28.0389 59.4149 31.8285 59.4149 31.8285C56.5338 33.9684 54.2693 35.1123 47.1708 34.7793C40.0722 34.4463 39.3611 36.843 34.1829 37.8778C34.1829 37.8778 38.623 31.1678 46.0902 29.6033Z" fill="#8A8A8A"/>
<path d="M4.15523 62.6628C6.64789 67.9412 19.2903 74.5049 29.1211 60.3964C23.2327 50.1555 7.84315 52.9054 4.15523 62.6628Z" fill="#8A8A8A"/>
<path d="M29.121 60.3964C29.121 60.3964 12.638 59.9891 4.09543 62.8656C6.42803 68.6863 15.1734 69.241 15.1734 69.241C25.2133 68.1528 29.121 60.3964 29.121 60.3964Z" fill="#8A8A8A"/>
<path d="M15.6444 53.9155C24.2681 52.1722 29.1358 60.3913 29.1358 60.3913C26.7657 61.8593 16.8822 58.8576 16.8822 58.8576L9.59062 56.1497C9.59062 56.1497 12.4278 54.5657 15.6444 53.9155Z" fill="#8A8A8A"/>
</g>
<defs>
<clipPath id="clip0_59_488">
<rect width="69.075" height="82.5" fill="#8A8A8A"/>
</clipPath>
</defs>
</svg>
