<svg width="70" height="83" viewBox="0 0 70 83" fill="none" xmlns="http://www.w3.org/2000/svg">
<g clip-path="url(#clip0_59_382)">
<path d="M36.075 72.5L41.075 68" stroke="#1F0B1D" stroke-width="3"/>
<path d="M33.2261 63.5629L27.075 60.84" stroke="#1F0B1D" stroke-width="3"/>
<path d="M35.5372 65.5278C39.6545 78.4984 37.4124 85.1434 36.7923 91.5H32.7923C36.2923 76.5 34.2923 73 32.7923 65C31.2921 53.5 32.2923 44.8333 32.7923 41H35C33.5935 48.8244 34.1647 54.2746 34.4099 59.306C34.5128 61.4176 34.8975 63.5128 35.5372 65.5278Z" fill="#8A8A8A"/>
<path d="M36.5372 65.5278C40.6545 78.4984 38.4124 85.1434 37.7923 91.5H34.2923C37.7923 76.5 35.2923 73 33.7923 65C32.2921 53.5 33.2923 44.8333 33.7923 41H36C34.5935 48.8244 35.1647 54.2746 35.4099 59.306C35.5128 61.4176 35.8975 63.5128 36.5372 65.5278Z" fill="#8A8A8A"/>
<path d="M39.5804 67.6177C43.5879 71.716 57.4271 73.7493 62.0218 57.5008C53.2701 49.8871 39.8709 57.3788 39.5804 67.6177Z" fill="#8A8A8A"/>
<path d="M62.0218 57.5008C62.0218 57.5008 46.5945 62.4136 39.5901 67.825C43.6231 72.478 51.9171 70.1857 51.9171 70.1857C60.8851 65.9532 62.0218 57.5008 62.0218 57.5008Z" fill="#8A8A8A"/>
<path d="M47.4348 55.8119C52.662 53.2534 57.7042 54.9556 57.7042 54.9556C57.4289 57.2592 53.1339 55.5486 48.3024 58.0627C43.471 60.5768 44.0121 64.37 40.1845 64.165C40.1845 64.165 42.2076 58.3704 47.4348 55.8119Z" fill="#8A8A8A"/>
<path d="M33.5901 48.3157C41.0877 47.8147 54.9044 35.7586 42.6303 17.3373C27.5881 19.5701 23.6364 39.3029 33.5901 48.3157Z" fill="#8A8A8A"/>
<path d="M42.6303 17.3373C42.6303 17.3373 34.3811 36.8936 33.8049 48.4827C41.877 48.4289 46.6595 38.2123 46.6595 38.2123C50.0832 25.6713 42.6303 17.3373 42.6303 17.3373Z" fill="#8A8A8A"/>
<path d="M28.5196 30.4318C30.424 23.044 36.4159 19.4706 36.4159 19.4706C37.0586 23.0015 37.0812 25.5384 33.6388 31.7553C30.1965 37.9723 32.0304 39.6713 30.6648 44.7723C30.6648 44.7723 26.6152 37.8196 28.5196 30.4318Z" fill="#8A8A8A"/>
<path d="M5.95511 51.2117C5.29622 57.0118 12.5908 69.247 28.3756 62.4256C28.7593 50.6188 14.2267 44.8565 5.95511 51.2117Z" fill="#8A8A8A"/>
<path d="M28.3755 62.4256C28.3755 62.4256 14.575 53.4034 5.79752 51.3527C4.71707 57.5296 11.861 62.6045 11.861 62.6045C20.9703 66.9638 28.3755 62.4256 28.3755 62.4256Z" fill="#8A8A8A"/>
<path d="M20.3282 49.8216C28.5782 52.8785 28.3908 62.4291 28.3908 62.4291C25.6029 62.4297 18.7793 54.6753 18.7793 54.6753L14.0049 48.5348C14.0049 48.5348 17.2509 48.6814 20.3282 49.8216Z" fill="#8A8A8A"/>
</g>
<defs>
<clipPath id="clip0_59_382">
<rect width="69.075" height="82.5" fill="#8A8A8A"/>
</clipPath>
</defs>
</svg>
