<svg width="74" height="64" viewBox="0 0 74 64" fill="none" xmlns="http://www.w3.org/2000/svg">
<ellipse cx="37.25" cy="55.5" rx="30" ry="4.5" fill="#8A8A8A" fill-opacity="0.52"/>
<path d="M62.0512 49.8712C65.0276 40.4383 68.5 22.0443 68.5 22.0443C68.5 22.0443 49.4911 24.3882 37.248 24.4025C25.005 24.4169 5.5 22.0443 5.5 22.0443C5.5 22.0443 7.98031 41.3816 12.4449 49.8712C14.9252 56.9458 37.248 56.0025 37.248 56.0025C37.248 56.0025 58.0827 56.0025 62.0512 49.8712Z" fill="#8A8A8A"/>
<mask id="mask0_54_301" style="mask-type:alpha" maskUnits="userSpaceOnUse" x="5" y="20" width="64" height="37">
<path d="M62.25 49.5C65.25 39.5 68.75 20 68.75 20C68.75 20 49.5902 22.4848 37.25 22.5C24.9098 22.5152 5.25 20 5.25 20C5.25 20 7.75 40.5 12.25 49.5C14.75 57 37.25 56 37.25 56C37.25 56 58.25 56 62.25 49.5Z" fill="#8A8A8A"/>
</mask>
<g mask="url(#mask0_54_301)">
<path d="M62.25 56.5C65.25 46.5 68.75 27 68.75 27C68.75 27 49.5902 29.4848 37.25 29.5C24.9098 29.5152 5.25 27 5.25 27C5.25 27 7.75 47.5 12.25 56.5C14.75 64 37.25 63 37.25 63C37.25 63 58.25 63 62.25 56.5Z" fill="#8A8A8A"/>
</g>
<path d="M43.25 32.5C42.85 30.9 41.75 30 40.75 29.5L67.2496 27C67.2496 27 65.2504 43.5 62.25 49.5C57.25 56.5 38.2496 56 38.2496 56C46.25 51.5 43.75 34.5 43.25 32.5Z" fill="#8A8A8A"/>
<path d="M54.25 32C54.3876 30.0047 51.75 28.4091 50.75 28.5L67.25 27C67.25 27 65.25 43 62.25 49.5C58.75 54.5 42.25 56 42.25 56C51.25 53.5 53.25 46.5 54.25 32Z" fill="#8A8A8A"/>
<path d="M0.250003 20.5V10C13.7505 19.0001 63.2503 17.0001 73.75 10L73.75 15.25L73.75 20.5C64.7504 25 12.7503 26.7501 0.250003 20.5Z" fill="#8A8A8A"/>
<path d="M29.2501 24.5C37.2501 23 37.2501 16 37.2501 16C37.2501 16 58.2501 16 73.7501 10V20.5C73.7501 20.5 64.75 25 29.2501 24.5Z" fill="#8A8A8A"/>
<path d="M63.25 23C64.25 19 64.25 13 64.25 13L73.75 10V20.5C73.75 20.5 70.75 22 63.25 23Z" fill="#8A8A8A"/>
<path d="M73.75 10C73.75 13.3137 56.9084 16 36.75 16C16.5916 16 0.25 13.3137 0.25 10C0.25 6.68629 16.5916 4 36.75 4C56.9084 4 73.75 6.68629 73.75 10Z" fill="#8A8A8A"/>
<path d="M70.25 10C70.25 12.2091 54.8978 14 36.5221 14C18.1464 14 3.25 12.2091 3.25 10C3.25 7.79086 18.1464 6 36.5221 6C54.8978 6 70.25 7.79086 70.25 10Z" fill="#8A8A8A"/>
<defs>
<linearGradient id="paint0_linear_54_301" x1="0.25" y1="10" x2="73.75" y2="10" gradientUnits="userSpaceOnUse">
<stop stop-color="#8A8A8A"/>
<stop offset="1" stop-color="#8A8A8A"/>
</linearGradient>
</defs>
</svg>
